<svg width="810" height="420" viewBox="0 0 810 420" fill="none" xmlns="http://www.w3.org/2000/svg">
<rect width="810" height="420" fill="#E8E8E8"/>
<g id="MutationW">
<rect id="Rectangle 39" width="810" height="420" fill="#A6BECA"/>
<rect id="Rectangle 40" y="311" width="810" height="8" fill="#585858"/>
<g id="Cytosine">
<g id="Rectangle 42">
<mask id="path-3-inside-1_0_1" fill="white">
<path d="M0 0L30.5 23L62 0V92H0V0Z"/>
</mask>
<path d="M0 0L30.5 23L62 0V92H0V0Z" fill="#FFF59A" stroke="#585858" stroke-width="10" mask="url(#path-3-inside-1_0_1)"/>
</g>
<text id="C" fill="black" xml:space="preserve" style="white-space: pre" font-family="Roboto Slab" font-size="32" font-weight="900" letter-spacing="0em"><tspan x="20" y="74.4297">C</tspan></text>
<text id="Number" fill="black" xml:space="preserve" style="white-space: pre" font-family="Roboto Slab" font-size="14" font-weight="300" letter-spacing="0em"><tspan x="20.8564" y="46.438">601</tspan></text>
</g>
<g id="Group 10">
<line id="Line 1" x1="41.7603" y1="328.764" x2="41.7603" y2="343.301" stroke="#FFFC00" stroke-width="5"/>
<line id="Line 4" x1="157.092" y1="347.178" x2="157.092" y2="359.777" stroke="#FFFC00" stroke-width="5"/>
<line id="Line 2" x1="39.2603" y1="344.678" x2="273.8" y2="344.678" stroke="#FFFC00" stroke-width="5"/>
<line id="Line 3" x1="271.3" y1="343.301" x2="271.3" y2="328.763" stroke="#FFFC00" stroke-width="5"/>
</g>
<text id="Name1" text-anchor="middle" fill="#FFFC00" xml:space="preserve" style="white-space: pre" font-family="Roboto Slab" font-size="32" font-weight="900" letter-spacing="0em"><tspan x="157" y="390.43">Arginine</tspan></text>
<g id="Group 11">
<line id="Line 1_2" x1="308.283" y1="328.764" x2="308.283" y2="343.301" stroke="#FFFC00" stroke-width="5"/>
<line id="Line 4_2" x1="423.615" y1="347.178" x2="423.615" y2="359.777" stroke="#FFFC00" stroke-width="5"/>
<line id="Line 2_2" x1="305.783" y1="344.678" x2="540.323" y2="344.678" stroke="#FFFC00" stroke-width="5"/>
<line id="Line 3_2" x1="537.823" y1="343.301" x2="537.823" y2="328.763" stroke="#FFFC00" stroke-width="5"/>
</g>
<g id="Group 12">
<line id="Line 1_3" x1="563.5" y1="329" x2="563.5" y2="343.538" stroke="#FFFC00" stroke-width="5"/>
<line id="Line 4_3" x1="678.832" y1="347.414" x2="678.832" y2="360.013" stroke="#FFFC00" stroke-width="5"/>
<line id="Line 2_3" x1="561" y1="344.914" x2="795.54" y2="344.914" stroke="#FFFC00" stroke-width="5"/>
<line id="Line 3_3" x1="793.04" y1="343.537" x2="793.04" y2="329" stroke="#FFFC00" stroke-width="5"/>
</g>
<text id="Name2" text-anchor="middle" fill="#FFFC00" xml:space="preserve" style="white-space: pre" font-family="Roboto Slab" font-size="32" font-weight="900" letter-spacing="0em"><tspan x="423.615" y="390.43">Serine</tspan></text>
<text id="Name3" text-anchor="middle" fill="#FFFC00" xml:space="preserve" style="white-space: pre" font-family="Roboto Slab" font-size="32" font-weight="900" letter-spacing="0em"><tspan x="678.832" y="393.43">Methionine</tspan></text>
<g id="Guanine">
<g id="Rectangle 43">
<mask id="path-21-inside-2_0_1" fill="white">
<path d="M0 31.0526L31 2L62 31.0526V94H0L0 31.0526Z"/>
</mask>
<path d="M0 31.0526L31 2L62 31.0526V94H0L0 31.0526Z" fill="#83D0F0" stroke="#585858" stroke-width="10" mask="url(#path-21-inside-2_0_1)"/>
</g>
<text id="G" fill="black" xml:space="preserve" style="white-space: pre" font-family="Roboto Slab" font-size="32" font-weight="900" letter-spacing="0em"><tspan x="20" y="76.4297">G</tspan></text>
<text id="Number_2" fill="black" xml:space="preserve" style="white-space: pre" font-family="Roboto Slab" font-size="14" font-weight="300" letter-spacing="0em"><tspan x="19.8857" y="48.438">602</tspan></text>
</g>
<g id="Adenine">
<g id="Rectangle 44">
<mask id="path-24-inside-3_0_1" fill="white">
<path d="M0 0C0 0 14.9205 27.0889 31 27.0889C47.0795 27.0889 62 0 62 0V92H0V0Z"/>
</mask>
<path d="M0 0C0 0 14.9205 27.0889 31 27.0889C47.0795 27.0889 62 0 62 0V92H0V0Z" fill="#F19FC1" stroke="#585858" stroke-width="10" mask="url(#path-24-inside-3_0_1)"/>
</g>
<text id="A" fill="black" xml:space="preserve" style="white-space: pre" font-family="Roboto Slab" font-size="32" font-weight="900" letter-spacing="0em"><tspan x="19" y="74.4297">A</tspan></text>
<text id="Number_3" fill="black" xml:space="preserve" style="white-space: pre" font-family="Roboto Slab" font-size="14" font-weight="300" letter-spacing="0em"><tspan x="19.9336" y="46.438">603</tspan></text>
</g>
<g id="Uracil">
<g id="Rectangle 45">
<mask id="path-27-inside-4_0_1" fill="white">
<path d="M0 29.0526C0 29.0526 14.4056 0 31 0C47.5944 0 62 29.0526 62 29.0526V92H0L0 29.0526Z"/>
</mask>
<path d="M0 29.0526C0 29.0526 14.4056 0 31 0C47.5944 0 62 29.0526 62 29.0526V92H0L0 29.0526Z" fill="#8FC796" stroke="#585858" stroke-width="10" mask="url(#path-27-inside-4_0_1)"/>
</g>
<text id="U" fill="black" xml:space="preserve" style="white-space: pre" font-family="Roboto Slab" font-size="32" font-weight="900" letter-spacing="0em"><tspan x="19" y="74.4297">U</tspan></text>
<text id="Number_4" fill="black" xml:space="preserve" style="white-space: pre" font-family="Roboto Slab" font-size="14" font-weight="300" letter-spacing="0em"><tspan x="18.6738" y="46.438">604</tspan></text>
</g>
<text id="Whoops, you accidentally created a" fill="black" xml:space="preserve" style="white-space: pre" font-family="Roboto Slab" font-size="24" font-weight="300" letter-spacing="0em"><tspan x="39" y="157.322">Whoops, you accidentally created a</tspan></text>
<text id="mutation." fill="black" xml:space="preserve" style="white-space: pre" font-family="Roboto Slab" font-size="24" font-weight="300" letter-spacing="0em"><tspan x="545" y="157.322">mutation.</tspan></text>
<text id="Whoops, you accidentally created a_2" fill="black" xml:space="preserve" style="white-space: pre" font-family="Roboto Slab" font-size="24" font-weight="300" letter-spacing="0em"><tspan x="39" y="157.322">Whoops, you accidentally created a</tspan></text>
<text id="The value for this trait is now" fill="black" xml:space="preserve" style="white-space: pre" font-family="Roboto Slab" font-size="24" font-weight="300" letter-spacing="0em"><tspan x="39" y="189.322">The value for this trait is now</tspan></text>
<text id="Mutation_Type" fill="black" xml:space="preserve" style="white-space: pre" font-family="Roboto Slab" font-size="24" font-weight="bold" letter-spacing="0em"><tspan x="442" y="157.322">misense</tspan></text>
<text id="Trait_value" fill="black" xml:space="preserve" style="white-space: pre" font-family="Roboto Slab" font-size="24" font-weight="bold" letter-spacing="0em"><tspan x="377" y="189.322">trait.</tspan></text>
<path id="Vector" d="M791.636 54.3238C791.416 54.1035 791.122 53.9728 790.812 53.9575C790.501 53.9422 790.195 54.0433 789.955 54.2411C788.894 55.1237 785.893 57.3073 780.968 58.5347C776.735 59.5874 773.517 56.0937 771.976 53.9376C771.534 53.3096 770.941 52.8032 770.25 52.4656C769.559 52.1279 768.793 51.9701 768.024 52.0069L767.826 51.4966C766.93 49.1424 765.217 47.1854 762.997 45.9802L761.465 45.1527C760.119 44.4246 758.948 43.4127 758.035 42.1876C757.443 41.3963 756.56 40.8712 755.58 40.7273C754.599 40.5834 753.601 40.8325 752.805 41.4199L749.237 44.0586L745.498 47.2765C744.949 47.7532 744.546 48.3743 744.335 49.0688C744.124 49.7632 744.115 50.5027 744.307 51.2024L745.623 55.9328L739.497 53.1148H739.465H739.423H739.382H739.322H739.239H739.183L739.091 53.1378H739.045C739 53.1588 738.958 53.185 738.92 53.2159L733.602 57.813C733.565 57.8453 733.533 57.8824 733.505 57.9233V57.9647C733.491 57.9914 733.479 58.019 733.469 58.0474V58.1026V58.1853V58.2451C733.469 58.2451 733.469 58.2773 733.469 58.291C733.466 58.3047 733.466 58.3187 733.469 58.3324C733.466 58.3415 733.466 58.3509 733.469 58.36L735.315 65.0027L729.314 62.2445H729.282H729.245H729.199H729.139H728.996H728.912H728.857C728.814 62.2662 728.774 62.2924 728.737 62.3227L723.415 66.9197C723.379 66.9504 723.348 66.986 723.322 67.0254V67.0668C723.306 67.0945 723.292 67.1238 723.281 67.1541C723.279 67.1709 723.279 67.1879 723.281 67.2047C723.277 67.2337 723.277 67.2631 723.281 67.292C723.279 67.3119 723.279 67.332 723.281 67.3518C723.279 67.3671 723.279 67.3825 723.281 67.3978C723.281 67.3978 723.281 67.4208 723.281 67.4346C723.281 67.4483 723.281 67.4346 723.281 67.4667L725.127 74.1049L719.126 71.3237C719.032 71.2806 718.927 71.2656 718.823 71.2802C718.72 71.2949 718.624 71.3387 718.545 71.4064L715.591 73.8015L707.388 72.1879L713.975 66.984C714.057 66.9205 714.118 66.8342 714.151 66.7361C714.184 66.6379 714.187 66.5322 714.16 66.4324L713.389 63.357L717.382 61.1872C717.46 61.1435 717.526 61.0811 717.575 61.0058C717.623 60.9304 717.652 60.8442 717.659 60.7551C717.666 60.634 717.632 60.514 717.562 60.4149L717.183 53.7446L722.561 57.7992C722.655 57.8673 722.768 57.9043 722.884 57.9049C722.974 57.9043 723.063 57.8823 723.142 57.8405L729.328 54.4939C729.407 54.4507 729.474 54.3887 729.523 54.3132C729.573 54.2378 729.602 54.1514 729.609 54.0618C729.617 53.9407 729.583 53.8205 729.513 53.7216L729.134 47.0513L734.512 51.1013C734.604 51.1734 734.718 51.2123 734.835 51.2116C734.925 51.2105 735.013 51.1885 735.093 51.1472L741.27 47.7868C741.349 47.7441 741.416 47.682 741.464 47.6064C741.513 47.5308 741.541 47.4442 741.547 47.3547C741.554 47.3044 741.554 47.2533 741.547 47.203C741.549 47.1632 741.549 47.1233 741.547 47.0835L741.085 39.7282L747.086 42.7944C747.126 42.8123 747.168 42.8262 747.211 42.8358C747.249 42.8406 747.288 42.8406 747.326 42.8358C747.42 42.8341 747.512 42.8088 747.594 42.7622H747.626H747.654L763.256 30.9524C764.95 31.7799 771.842 36.0092 767.872 48.7522C767.83 48.8875 767.843 49.0339 767.909 49.1596C767.975 49.2853 768.087 49.38 768.223 49.4234C768.276 49.4374 768.33 49.4451 768.384 49.4463C768.499 49.4472 768.611 49.4109 768.704 49.3429C768.796 49.2749 768.864 49.179 768.897 49.0694C773.513 34.2071 763.985 30.079 763.288 29.7986L757.057 26.6312C756.566 26.3839 756.015 26.279 755.467 26.3286C754.92 26.3782 754.397 26.5802 753.959 26.9116L748.42 31.1593L748.835 22.7973C748.842 22.6939 748.818 22.5909 748.766 22.501C748.715 22.4111 748.637 22.3383 748.545 22.2916L740.956 18.4347C740.886 18.3989 740.81 18.3786 740.732 18.3753C740.654 18.372 740.576 18.3857 740.504 18.4155C740.432 18.4453 740.367 18.4904 740.315 18.5477C740.262 18.6051 740.222 18.6732 740.199 18.7473L733.575 23.7811L733.99 15.4236C733.997 15.3203 733.973 15.2172 733.921 15.1273C733.869 15.0374 733.792 14.9646 733.699 14.918L726.111 11.0565C726.047 11.0247 725.977 11.0059 725.906 11.0012C725.834 10.9965 725.763 11.0059 725.695 11.0289C725.616 11.0105 725.533 11.0096 725.454 11.0262C725.374 11.0429 725.299 11.0768 725.233 11.1254L722.215 13.4469C720.617 14.6743 720.257 15.3225 719.717 16.458C719.27 17.3795 719.077 18.403 719.158 19.4233C719.239 20.4436 719.592 21.424 720.179 22.264L720.096 22.6272C719.343 26.0612 718.406 30.3364 716.92 30.6674C716.052 30.8559 715.346 29.2883 714.612 27.6702C713.689 25.6337 712.645 23.326 710.642 22.7513C709.433 22.4065 708.089 22.7513 706.525 23.7811C705.984 24.145 705.529 24.621 705.19 25.1764C704.852 25.7318 704.638 26.3535 704.563 26.999C704.193 29.486 705.431 32.5568 706.778 34.1796C706.926 34.3499 707.027 34.5554 707.072 34.7761C707.116 34.9968 707.103 35.2252 707.032 35.4392C706.946 35.6825 706.798 35.8997 706.603 36.0702C706.408 36.2408 706.173 36.359 705.92 36.4137C703.529 37.0113 699.545 37.1493 694.075 34.4094C694.013 34.3792 693.945 34.3616 693.876 34.3577C693.807 34.3539 693.737 34.3638 693.672 34.3869C693.607 34.41 693.547 34.4459 693.495 34.4923C693.444 34.5388 693.403 34.595 693.373 34.6577C693.311 34.7889 693.304 34.9391 693.352 35.0759C693.4 35.2127 693.501 35.3251 693.632 35.3886C697.371 37.2596 700.482 37.8388 702.906 37.8388C704.008 37.8457 705.108 37.716 706.178 37.4527C706.608 37.3542 707.005 37.1486 707.333 36.8551C707.661 36.5615 707.909 36.1898 708.052 35.7747C708.184 35.3848 708.21 34.9675 708.129 34.5642C708.048 34.1609 707.863 33.7858 707.591 33.4762C706.391 32.0282 705.283 29.3389 705.611 27.1323C705.665 26.6368 705.827 26.1591 706.086 25.7327C706.346 25.3063 706.695 24.9415 707.111 24.6637C708.389 23.8132 709.447 23.519 710.342 23.7719C711.865 24.2316 712.802 26.2773 713.629 28.1023C714.552 30.1526 715.434 32.0879 717.16 31.7064C717.648 31.5826 718.084 31.3053 718.402 30.9157C718.472 30.9125 718.541 30.8953 718.605 30.8651C721.301 29.6745 723.276 26.7278 724.693 23.7535L724.329 31.0628C724.329 31.0628 724.329 31.0628 724.329 31.095C724.326 31.1102 724.326 31.1257 724.329 31.1409C724.327 31.1546 724.327 31.1686 724.329 31.1823C724.326 31.2021 724.326 31.2222 724.329 31.2421C724.339 31.2705 724.351 31.2981 724.366 31.3248C724.371 31.341 724.379 31.3564 724.389 31.3708L724.449 31.4489L724.481 31.4811C724.514 31.5166 724.553 31.5461 724.596 31.5684L730.985 34.8186L732.038 39.8753L728.322 37.0757H728.294H728.262H728.22H728.165H728.077H728.022C727.988 37.0712 727.954 37.0712 727.92 37.0757H727.878C727.831 37.0885 727.785 37.1054 727.74 37.1263L721.564 40.4913C721.522 40.5136 721.483 40.5414 721.448 40.5741C721.448 40.5741 721.448 40.6016 721.416 40.6108L721.361 40.6844C721.361 40.7012 721.361 40.7181 721.361 40.7349C721.348 40.7617 721.337 40.7894 721.328 40.8177C721.326 40.836 721.326 40.8545 721.328 40.8729C721.327 40.8881 721.327 40.9036 721.328 40.9188C721.326 40.9325 721.326 40.9465 721.328 40.9602C721.328 40.9602 721.328 40.9602 721.328 40.9878L721.721 47.8833L716.431 43.8931H716.398C716.398 43.8931 716.398 43.8931 716.366 43.8931H716.324H716.269H716.181H716.158C716.125 43.8886 716.09 43.8886 716.057 43.8931H716.015C715.967 43.9055 715.92 43.924 715.877 43.9483L709.696 47.1386C709.654 47.1609 709.615 47.1887 709.58 47.2214L709.553 47.2581C709.53 47.2822 709.51 47.3084 709.493 47.3363C709.493 47.3363 709.493 47.3685 709.47 47.3823C709.457 47.409 709.446 47.4367 709.437 47.465C709.435 47.4833 709.435 47.5019 709.437 47.5202C709.436 47.5355 709.436 47.5509 709.437 47.5662C709.435 47.5798 709.435 47.5938 709.437 47.6075C709.435 47.6181 709.435 47.6291 709.437 47.6397L709.502 48.7936L707.84 42.2474C707.817 42.1609 707.773 42.0814 707.712 42.0157C707.65 41.95 707.574 41.9002 707.489 41.8704C707.434 41.8615 707.378 41.8615 707.323 41.8704C707.27 41.8425 707.212 41.8238 707.152 41.8153L692.483 39.8753C692.196 39.8348 691.926 39.7171 691.702 39.5351C690.433 38.4778 689.796 37.2366 689.907 36.0781C690.018 34.9197 690.89 33.821 692.353 33.0257L694.001 32.0465C694.464 31.7939 694.847 31.4177 695.107 30.9603C695.367 30.5028 695.494 29.9822 695.473 29.457C695.453 28.9318 695.285 28.4226 694.99 27.9868C694.695 27.551 694.284 27.2057 693.803 26.9898L686.712 24.0201C686.568 23.955 686.412 23.9191 686.254 23.9143C686.095 23.9096 685.937 23.9362 685.789 23.9925C685.56 24.0789 685.361 24.2323 685.221 24.4327C685.08 24.6331 685.004 24.8711 685.001 25.1155C684.999 25.36 685.07 25.5995 685.207 25.8027C685.343 26.0059 685.538 26.1633 685.766 26.2543L692.302 28.8838C692.419 28.9303 692.519 29.0086 692.593 29.1096C692.666 29.2105 692.709 29.3301 692.718 29.4545C692.726 29.5789 692.699 29.7031 692.639 29.8128C692.579 29.9225 692.49 30.0131 692.381 30.0744L689.99 31.4535C688.817 32.1232 687.892 33.1504 687.35 34.3836C686.808 35.6169 686.678 36.9909 686.98 38.3031L687.52 40.4407C688.038 42.4523 689.116 44.2773 690.629 45.7062C692.142 47.135 694.029 48.1095 696.074 48.5177L698.133 48.9269L691.536 54.1307L691.499 54.1583L691.472 54.1997L691.439 54.2411C691.422 54.2667 691.408 54.2945 691.398 54.3238V54.3744C691.393 54.4048 691.393 54.4359 691.398 54.4663C691.396 54.4831 691.396 54.5001 691.398 54.5169C691.393 54.5643 691.393 54.612 691.398 54.6594L692.035 57.1602L688.18 59.2564L685.872 55.018C685.819 54.9205 685.737 54.842 685.637 54.7934C685.536 54.7448 685.424 54.7285 685.314 54.7467C682.858 55.2077 680.51 56.1197 678.39 57.436C676.667 57.6446 674.93 57.1818 673.543 56.1442C673.695 55.7213 673.861 55.2938 674.06 54.8617C674.356 54.2092 674.7 53.5792 675.089 52.9769C675.957 53.2431 676.858 53.3855 677.766 53.3998C678.541 53.4077 679.31 53.2689 680.033 52.9907C681.879 52.2459 683.135 50.5404 683.758 47.9339V47.9063C683.765 47.8529 683.765 47.7988 683.758 47.7454C683.756 47.7317 683.756 47.7178 683.758 47.7041C683.747 47.6483 683.728 47.5942 683.703 47.5432L680.472 41.6498C680.417 41.5524 680.334 41.4741 680.233 41.4256C680.132 41.3771 680.019 41.3606 679.908 41.3785C677.355 41.8605 674.921 42.8316 672.74 44.2379C671.138 36.7401 678.957 30.5065 679.041 30.4468C679.096 30.3988 679.142 30.3403 679.175 30.2747C679.208 30.2091 679.228 30.1377 679.233 30.0645C679.239 29.9913 679.23 29.9177 679.206 29.848C679.183 29.7784 679.146 29.7139 679.098 29.6584C679.05 29.6028 678.991 29.5573 678.925 29.5244C678.86 29.4914 678.788 29.4717 678.714 29.4664C678.641 29.461 678.567 29.4702 678.497 29.4933C678.427 29.5163 678.362 29.5529 678.307 29.6009C676.704 30.9315 675.296 32.4789 674.124 34.198C671.659 37.7974 670.838 41.5027 671.733 44.9458C670.028 46.2562 668.802 48.0876 668.244 50.1589C667.77 52.1355 667.991 54.2142 668.871 56.0477L671.382 61.4216C671.41 61.476 671.446 61.5257 671.489 61.5687C671.763 62.1588 672.127 62.7031 672.569 63.1823C672.869 63.4822 673.193 63.7574 673.538 64.0052C673.209 65.8429 673.462 67.7372 674.263 69.4251L676.765 74.8174C676.79 74.873 676.826 74.923 676.871 74.9645C677.145 75.5491 677.51 76.0873 677.951 76.5597C678.253 76.8597 678.579 77.1349 678.925 77.3826C678.596 79.2203 678.849 81.1146 679.65 82.8025L682.147 88.1948C682.174 88.2492 682.21 88.2988 682.253 88.3419C682.528 88.932 682.892 89.4763 683.333 89.9555C683.634 90.2667 683.96 90.5527 684.307 90.8105C683.981 92.6483 684.234 94.5418 685.032 96.2304L687.539 101.604C687.563 101.662 687.6 101.713 687.645 101.756C687.918 102.346 688.281 102.89 688.72 103.37C689.356 104.041 690.123 104.576 690.974 104.941C691.825 105.307 692.742 105.494 693.669 105.493C693.96 105.491 694.252 105.473 694.541 105.438C694.377 106.301 694.286 107.176 694.269 108.054C694.227 112.403 693.964 112.954 692.856 115.262C692.579 115.841 692.238 116.559 691.836 117.464C690.784 119.859 689.473 122.833 690.941 125.123C692.289 127.228 695.751 128.313 701.521 128.437H701.802C708.611 128.437 713.656 123.128 716.698 118.646C716.952 118.269 717.192 117.896 717.423 117.529C718.118 121.325 719.721 124.9 722.095 127.95L724.186 130.639C724.267 130.745 724.386 130.816 724.518 130.837C724.945 131.424 725.577 131.831 726.291 131.977C726.402 131.991 726.515 131.999 726.628 132C727.8 132 729.014 131.081 730.237 129.205C732.458 125.835 732.938 119.708 732.725 115.961L732.776 115.906L732.998 115.658C733.277 115.413 733.525 115.135 733.736 114.83L736.4 111.86C737.218 110.944 737.763 109.818 737.975 108.61C738.187 107.402 738.057 106.159 737.6 105.02C738.048 105.087 738.5 105.121 738.952 105.121H739.197C740.702 105.108 742.17 104.661 743.425 103.834C743.529 103.819 743.626 103.773 743.702 103.701C743.769 103.638 743.831 103.571 743.887 103.498L747.511 99.4483C748.174 98.7065 748.66 97.8251 748.934 96.8699C749.207 95.9148 749.26 94.9104 749.089 93.9319H749.2C750.704 93.9153 752.172 93.4685 753.428 92.6447C753.532 92.6302 753.629 92.5836 753.705 92.5114C753.705 92.5114 753.788 92.4287 753.89 92.3046L754.121 92.0471L757.504 88.2683C758.322 87.3525 758.868 86.2277 759.08 85.0203C759.292 83.8129 759.162 82.5705 758.705 81.4325C759.152 81.4977 759.604 81.5315 760.057 81.5337H760.302C761.806 81.5171 763.274 81.0703 764.53 80.2465C764.633 80.23 764.73 80.1837 764.807 80.1132C764.872 80.0474 764.934 79.9784 764.992 79.9063L768.615 75.8609C769.629 74.7301 770.219 73.2852 770.287 71.7707C770.354 70.2562 769.894 68.7651 768.985 67.5495C766.801 64.6671 764.202 62.8237 761.47 62.2215C760.78 62.0721 760.073 62.0225 759.369 62.0744C760.172 60.5977 761.063 59.1701 762.037 57.7992C762.226 57.7041 762.424 57.6301 762.628 57.5785C764.387 57.1188 766.843 58.0152 769.732 60.1666C771.515 61.441 773.669 62.0967 775.862 62.033C782.08 62.033 788.977 57.8681 791.446 56.227C791.602 56.125 791.732 55.9892 791.827 55.83C791.922 55.6708 791.98 55.4922 791.996 55.3076C792.011 55.1274 791.987 54.9461 791.924 54.7762C791.862 54.6063 791.764 54.4519 791.636 54.3238ZM745.346 50.922C745.204 50.4186 745.21 49.8856 745.361 49.385C745.512 48.8845 745.803 48.437 746.2 48.0948L749.892 44.8769L753.433 42.2658C753.89 41.9246 754.445 41.7407 755.016 41.7417C755.432 41.7422 755.843 41.8393 756.214 42.0252C756.586 42.2112 756.909 42.4808 757.158 42.8128C758.165 44.1626 759.455 45.2779 760.939 46.0813L762.471 46.9088C764.461 47.9865 765.999 49.7354 766.81 51.8414L766.935 52.1724L766.695 52.2459C765.678 49.9115 763.844 48.0246 761.534 46.9364L761.216 46.7847C759.744 46.0895 758.453 45.0653 757.444 43.792L756.692 42.8404C756.516 42.617 756.297 42.4311 756.048 42.2935C755.799 42.156 755.525 42.0696 755.242 42.0396C754.958 42.0096 754.672 42.0365 754.399 42.1188C754.127 42.2011 753.873 42.337 753.655 42.5186L751.347 44.4448C750.787 44.9101 750.374 45.5259 750.156 46.2188C749.938 46.9117 749.925 47.6523 750.119 48.3522L753.198 59.4173L746.91 56.512L745.346 50.922ZM739.345 54.2273L753.018 60.5436L748.586 64.3637L734.918 58.0474L739.345 54.2273ZM734.766 59.1599L741.085 62.0652L742.867 68.4643L736.575 65.559L734.766 59.1599ZM729.106 63.2972L742.775 69.609L738.348 73.4291L724.675 67.1174L729.106 63.2972ZM724.523 68.2299L730.814 71.1306L732.591 77.5343L726.314 74.6381L724.523 68.2299ZM718.863 72.3672L732.536 78.6835L728.105 82.5037L717.22 77.4791L716.454 74.468L718.863 72.3672ZM710.873 96.8832L707.669 99.4162L706.746 96.0649L710.873 96.8832ZM703.769 94.387L710.577 89.0131L718.785 90.6312L712.004 96.0236L703.769 94.387ZM719.814 91.1691L721.614 98.2531L707.129 109.7L705.329 102.611L719.814 91.1691ZM719.916 89.744L711.681 88.1166L715.895 84.7884L722.293 87.7397L720.008 89.7164C719.979 89.732 719.952 89.7521 719.93 89.7762L719.916 89.744ZM716.841 84.0437L718.268 82.9174C718.349 82.8535 718.41 82.7672 718.443 82.6691C718.476 82.5711 718.479 82.4656 718.452 82.3657L717.529 78.7893L720.557 80.1684L722.339 86.5674L716.841 84.0437ZM715.946 76.8677L716.288 78.21L717.326 82.2922L702.841 93.7342L701.055 86.6732L713.421 76.8999L714.446 76.1919L715.544 75.2495L715.946 76.8677ZM714.497 74.6473L707.692 80.0258L699.48 78.4077L706.289 73.0292L714.497 74.6473ZM698.553 77.7733L696.771 70.7168L703.695 65.2418L704.803 64.3683L711.081 59.4265L712.105 63.4627L712.198 63.8121L712.373 64.52L712.835 66.3589L698.553 77.7733ZM710.208 58.6864L703.404 64.0649L695.192 62.4422L702.001 57.0636L710.208 58.6864ZM703.104 56.1902L703.884 55.5742L703.93 56.3557L703.104 56.1902ZM713.126 62.3089L712.087 58.2313C712.069 58.1557 712.034 58.085 711.985 58.0243C711.936 57.9637 711.875 57.9144 711.805 57.8802C711.734 57.846 711.658 57.8275 711.58 57.8262C711.502 57.8249 711.424 57.8408 711.353 57.8727L705.034 56.6223L704.927 54.8157L706.612 53.4871L716.158 60.6447L713.126 62.3089ZM748.383 32.5292L754.656 27.7069C754.932 27.4975 755.261 27.3695 755.607 27.3378C755.952 27.3061 756.299 27.3719 756.609 27.5276L762.199 30.3732L747.954 41.1625L748.383 32.5292ZM741.242 19.7081L747.778 23.0363L746.855 41.4245L740.319 38.1008L741.242 19.7081ZM740.411 46.1778L733.395 40.8867L732.268 35.4484H732.315C732.368 35.4665 732.424 35.4758 732.481 35.4759C732.533 35.4829 732.586 35.4829 732.638 35.4759H732.684L732.753 35.4484L732.785 35.4208L739.414 30.364L739.525 32.1477L739.239 38.4042C739.239 38.4042 739.239 38.4042 739.239 38.4364C739.239 38.4686 739.239 38.4686 739.239 38.4824C739.241 38.4976 739.241 38.5132 739.239 38.5284V38.5835L739.271 38.6663L739.299 38.7122C739.316 38.7402 739.336 38.7664 739.359 38.7904L739.391 38.8272C739.425 38.8598 739.464 38.8877 739.506 38.9099L739.968 39.1398L740.411 46.1778ZM733.487 25.1878L740.125 20.131L739.7 28.7505L733.062 33.8072L733.487 25.1878ZM724.86 20.5907C723.701 23.6386 721.933 27.2702 719.454 29.1182C720.151 27.4541 720.65 25.1786 721.162 22.8295L721.296 22.2365C721.315 22.1572 721.316 22.0746 721.298 21.995C721.281 21.9153 721.245 21.8407 721.194 21.7768C720.663 21.0866 720.334 20.2634 720.244 19.3985C720.153 18.5336 720.305 17.6607 720.682 16.8763C721.144 15.9155 721.398 15.3823 722.865 14.256L725.266 12.4172L724.86 20.5907ZM731.968 34.083L725.432 30.7594L726.355 12.3712L732.892 15.6949L731.968 34.083ZM727.989 38.1468L739.991 47.203L734.849 50.0026L722.847 40.9464L727.989 38.1468ZM727.989 46.1641L728.368 52.7976L722.828 48.6281L722.45 41.9991L727.989 46.1641ZM716.047 44.8539L728.049 53.9147L722.907 56.7097L710.905 47.6535L716.047 44.8539ZM716.047 52.8711L716.426 59.5047L710.887 55.3351L710.513 48.7062L716.047 52.8711ZM709.585 51.0829L709.779 54.4893L707.471 52.7516L709.585 51.0829ZM696.272 47.4374C694.424 47.0679 692.718 46.1863 691.35 44.8941C689.982 43.6019 689.008 41.9515 688.54 40.1327L688.079 38.3307L688 38.0365C687.75 36.9491 687.857 35.8103 688.306 34.7881C688.754 33.7659 689.521 32.9143 690.493 32.3591L692.889 31.0076C693.173 30.8455 693.407 30.6069 693.562 30.3192C693.717 30.0315 693.787 29.7061 693.766 29.3803C693.745 29.0552 693.632 28.7426 693.44 28.4789C693.248 28.2152 692.985 28.0112 692.681 27.8908L686.154 25.2567C686.136 25.2495 686.12 25.2389 686.107 25.2255C686.093 25.2121 686.083 25.1961 686.075 25.1786C686.068 25.1612 686.063 25.1424 686.063 25.1234C686.063 25.1044 686.068 25.0856 686.075 25.0682C686.082 25.0507 686.092 25.035 686.106 25.0222C686.12 25.0094 686.136 25 686.154 24.9947H686.2C686.226 24.9892 686.253 24.9892 686.279 24.9947L693.369 27.9644C693.667 28.0998 693.921 28.3153 694.103 28.5865C694.285 28.8578 694.387 29.1742 694.399 29.5002C694.41 29.8261 694.33 30.1489 694.168 30.4322C694.006 30.7155 693.767 30.9482 693.48 31.1042L691.795 32.0603C690.013 33.0303 688.951 34.4094 688.799 35.9448C688.647 37.4802 689.422 39.0386 690.978 40.3304C691.357 40.644 691.818 40.8447 692.307 40.9096L706.003 42.7209L699.24 48.058L696.272 47.4374ZM706.954 43.3001L708.754 50.3887L694.278 61.8492L692.478 54.7651L706.954 43.3001ZM692.182 58.2819L692.289 58.36L693.438 62.8973C693.448 62.9425 693.465 62.9859 693.489 63.026L693.521 63.0674C693.536 63.0933 693.554 63.1166 693.577 63.1363L693.618 63.1731L693.687 63.2237L693.743 63.2513H693.784H693.817H693.853L702.31 64.9705L697.371 68.8734L688.767 62.3916C688.882 62.056 688.984 61.7066 689.076 61.3343C689.083 61.2809 689.083 61.2268 689.076 61.1734C689.078 61.1597 689.078 61.1457 689.076 61.132C689.066 61.0757 689.048 61.0213 689.02 60.9711L688.633 60.2586L692.182 58.2819ZM688.347 63.4076L692.182 66.3037L692.436 70.726L691.181 68.4275C691.127 68.3297 691.044 68.251 690.943 68.2024C690.842 68.1538 690.728 68.1377 690.618 68.1563C689.407 68.3956 688.222 68.7464 687.077 69.2044L686.865 65.4946C687.494 64.9086 687.998 64.2018 688.347 63.4167V63.4076ZM684.949 65.4073C683.695 65.8328 682.337 65.8505 681.072 65.4578C681.553 64.8547 682.101 64.3073 682.706 63.8259C683.509 63.4072 684.291 62.9469 685.046 62.4468C685.934 62.0942 686.865 61.8637 687.816 61.7618C687.253 63.6558 686.288 64.8786 684.949 65.4165V65.4073ZM686.006 69.609C685.206 69.9621 684.435 70.3755 683.698 70.8456C681.973 71.0547 680.233 70.5919 678.842 69.5538C678.99 69.1355 679.161 68.7079 679.354 68.2758C679.651 67.6213 679.997 66.9897 680.388 66.3864C681.255 66.6568 682.157 66.8008 683.066 66.814C683.839 66.8219 684.607 66.683 685.328 66.4048C685.489 66.3405 685.637 66.2577 685.789 66.1796L686.006 69.609ZM679.544 52.0115C678.291 52.437 676.934 52.4547 675.671 52.0621C676.483 51.0207 677.502 50.1569 678.664 49.5242C679.825 48.8915 681.105 48.5036 682.424 48.3844C681.875 50.26 680.91 51.4828 679.567 52.0207L679.544 52.0115ZM669.85 55.5696C669.082 53.9595 668.89 52.1363 669.305 50.4025C670.745 44.7712 677.937 42.8864 679.664 42.5094L682.304 47.3317C674.457 48.2189 672.209 55.6891 671.576 59.284L669.85 55.5696ZM673.824 62.8697C673.654 62.7272 673.483 62.5801 673.317 62.41C672.938 62.0018 672.626 61.5363 672.393 61.0309C672.516 59.7501 672.765 58.4844 673.137 57.2521C674.245 57.9995 675.525 58.4564 676.857 58.5807C675.478 59.7144 674.435 61.2001 673.838 62.8789L673.824 62.8697ZM675.209 68.9654C674.433 67.3548 674.234 65.5279 674.646 63.7891C676.091 58.1577 683.283 56.2683 685.004 55.896L687.649 60.7183C679.802 61.6009 677.55 69.0757 676.922 72.6706L675.209 68.9654ZM679.23 76.2747C679.059 76.1322 678.893 75.9851 678.727 75.815C678.346 75.408 678.034 74.9423 677.803 74.4359C677.914 73.1468 678.152 71.8719 678.514 70.6295C679.613 71.3754 680.883 71.8339 682.207 71.9626C680.843 73.1069 679.814 74.5966 679.23 76.2747ZM680.615 82.3703C679.838 80.7597 679.64 78.9329 680.051 77.1941C681.492 71.5627 688.688 69.6733 690.41 69.301L693.078 74.1233C685.231 75.0059 682.983 82.4761 682.35 86.0756L680.615 82.3703ZM693.212 75.1806C692.616 77.0516 691.693 78.2744 690.308 78.8122C689.055 79.2377 687.699 79.2554 686.435 78.8628C686.813 78.3888 687.231 77.9488 687.686 77.548L691.379 75.5483C691.978 75.374 692.592 75.2509 693.212 75.1806ZM684.598 89.6704C684.427 89.5279 684.257 89.3808 684.091 89.2107C683.711 88.8026 683.4 88.3371 683.167 87.8316C683.278 86.5411 683.516 85.2646 683.878 84.0207C684.986 84.7695 686.266 85.228 687.599 85.3538C686.222 86.4937 685.185 87.9863 684.598 89.6704ZM686.006 95.7661C685.23 94.1555 685.031 92.3287 685.443 90.5899C686.888 84.9585 694.08 83.0691 695.806 82.6967L698.446 87.519C690.599 88.4017 688.347 95.8718 687.719 99.4713L686.006 95.7661ZM698.59 88.5809C698.013 90.4473 697.048 91.6702 695.709 92.208C694.456 92.6313 693.1 92.649 691.836 92.2586C692.649 91.2174 693.668 90.3537 694.829 89.7211C695.991 89.0885 697.271 88.7004 698.59 88.5809ZM689.473 102.611C689.094 102.203 688.782 101.737 688.55 101.232C688.66 99.9415 688.898 98.6649 689.26 97.4211C691.107 98.6531 693.697 99.4116 696.965 98.1152C696.032 100.115 695.291 102.197 694.749 104.335C693.795 104.517 692.81 104.454 691.887 104.152C690.964 103.851 690.133 103.32 689.473 102.611ZM691.384 122.167C691.536 120.788 692.201 119.289 692.815 117.896C693.207 117.004 693.53 116.324 693.821 115.722C694.947 113.364 695.289 112.651 695.335 108.063C695.377 104.165 697.477 99.4346 698.728 96.9613C698.858 96.7052 699.055 96.4892 699.299 96.3369C699.544 96.1845 699.825 96.1016 700.113 96.0971C700.301 96.0984 700.487 96.1342 700.662 96.2028C702.227 96.8234 703.127 97.7934 703.339 99.0898C703.561 100.469 701.59 101.894 699.679 103.282C697.611 104.786 695.474 106.339 695.524 108.242C695.681 113.446 693.913 116.94 692.496 119.735C692.085 120.527 691.714 121.338 691.384 122.167ZM715.798 118.03C712.862 122.355 708.011 127.481 701.535 127.348C696.508 127.242 693.318 126.382 692.035 124.801C692.051 124.73 692.051 124.656 692.035 124.585C691.845 123.417 692.561 122.001 693.47 120.209C694.855 117.45 696.78 113.667 696.614 108.192C696.577 106.854 698.46 105.466 700.307 104.128C702.476 102.547 704.72 100.91 704.392 98.9013C704.12 97.2326 702.966 95.9454 701.055 95.1869C700.441 94.9538 699.762 94.9555 699.149 95.1915C698.536 95.4274 698.032 95.8811 697.736 96.4649L697.689 96.5614C694.172 98.4278 691.481 97.6969 689.593 96.3408C689.741 95.9178 689.911 95.4903 690.105 95.0582C690.402 94.4036 690.748 93.7721 691.139 93.1688C692.006 93.4388 692.908 93.5828 693.817 93.5963C694.59 93.6049 695.358 93.4644 696.078 93.1826C697.925 92.4425 699.18 90.7324 699.808 88.1258V88.0937C699.815 88.0418 699.815 87.9892 699.808 87.9374C699.81 87.9237 699.81 87.9097 699.808 87.896C699.8 87.8399 699.783 87.7855 699.757 87.7351L696.526 81.8417C696.473 81.7438 696.391 81.6649 696.291 81.6162C696.191 81.5675 696.078 81.5515 695.968 81.5705C693.512 82.0296 691.163 82.9417 689.044 84.2597C687.319 84.4644 685.582 84.0002 684.192 82.9634C684.344 82.545 684.515 82.1175 684.709 81.6854C685.018 81.0222 685.379 80.3843 685.789 79.7776C686.653 80.0588 687.553 80.2137 688.462 80.2373C689.235 80.2448 690.003 80.1059 690.724 79.8282C692.57 79.0835 693.826 77.378 694.449 74.7714V74.7209C694.458 74.6677 694.458 74.6132 694.449 74.56C694.447 74.5463 694.447 74.5323 694.449 74.5186C694.437 74.4628 694.419 74.4088 694.394 74.3577L693.627 72.9786L693.295 67.2047L696.485 69.609L695.848 70.0962C695.848 70.0962 695.82 70.0962 695.811 70.1284L695.783 70.1652C695.77 70.1786 695.759 70.1941 695.751 70.2112C695.733 70.2352 695.719 70.2615 695.709 70.2893V70.3399C695.705 70.3719 695.705 70.4044 695.709 70.4364C695.707 70.4517 695.707 70.4671 695.709 70.4824C695.702 70.5312 695.702 70.5807 695.709 70.6295L696.752 74.7393L697.796 78.8536C697.809 78.8999 697.828 78.9446 697.851 78.9869L697.883 79.0283C697.899 79.0534 697.917 79.0766 697.939 79.0973L697.98 79.134L698.049 79.1846L698.105 79.2076H698.146H698.179H698.216L706.668 80.8717L700.182 85.9974V86.0204L700.145 86.048C700.134 86.0607 700.125 86.0745 700.117 86.0893L700.002 86.2135C699.985 86.2391 699.971 86.2669 699.961 86.2962L699.937 86.3468C699.933 86.3773 699.933 86.4082 699.937 86.4387C699.935 86.4555 699.935 86.4725 699.937 86.4893C699.933 86.5367 699.933 86.5844 699.937 86.6318L702.029 94.8559C702.041 94.9025 702.06 94.9473 702.084 94.9892C702.094 95.0039 702.104 95.0177 702.116 95.0306C702.131 95.0563 702.15 95.0796 702.172 95.0995L702.213 95.1409L702.282 95.1869L702.338 95.2145H702.379H702.412C702.424 95.2171 702.436 95.2171 702.449 95.2145L705.583 95.8351L706.778 100.138L704.415 102.009C704.413 102.016 704.413 102.024 704.415 102.032C704.401 102.038 704.388 102.048 704.378 102.059L704.35 102.096C704.32 102.135 704.295 102.179 704.277 102.225C704.277 102.225 704.277 102.257 704.277 102.271C704.272 102.303 704.272 102.335 704.277 102.367C704.274 102.383 704.274 102.398 704.277 102.413C704.272 102.462 704.272 102.512 704.277 102.561L705.324 106.67L706.368 110.808C706.379 110.85 706.396 110.89 706.418 110.927C706.418 110.938 706.418 110.949 706.418 110.959C706.434 110.986 706.453 111.01 706.474 111.033L706.506 111.065L706.566 111.116L706.617 111.143L706.663 111.171L711.159 113.051C712.352 113.549 713.632 113.805 714.926 113.805C715.648 113.802 716.368 113.721 717.072 113.561C717.072 114.337 717.118 115.103 717.211 115.86C716.758 116.554 716.306 117.299 715.798 118.048V118.03ZM717.719 107.429C717.319 109.067 717.09 110.741 717.035 112.426C715.206 112.893 713.273 112.756 711.528 112.035L707.872 110.504L714.88 104.988L718.111 105.627C717.988 106.067 717.897 106.516 717.839 106.969L717.719 107.429ZM724.149 127.656L722.233 122.788C721.039 119.74 720.518 116.473 720.705 113.207C722.048 115.046 724.209 116.816 726.706 117.345C727.924 117.61 729.192 117.537 730.371 117.133C730.45 120.83 729.593 124.487 727.878 127.766C727.763 127.986 727.602 128.179 727.407 128.333C727.212 128.486 726.986 128.597 726.745 128.659C726.504 128.72 726.252 128.73 726.007 128.687C725.762 128.645 725.528 128.552 725.321 128.414L724.149 127.656ZM729.328 128.575C728.252 130.207 727.26 130.998 726.447 130.874C725.801 130.777 725.261 130.111 724.869 129.398C725.202 129.588 725.569 129.709 725.95 129.753C726.331 129.798 726.717 129.765 727.085 129.657C727.452 129.55 727.795 129.369 728.09 129.126C728.386 128.883 728.63 128.583 728.806 128.244C730.681 124.68 731.583 120.689 731.424 116.669L731.668 116.526C731.821 120.691 731.105 125.923 729.328 128.621V128.575ZM732.13 114.927C730.487 116.209 728.732 116.673 726.909 116.283C724.25 115.713 721.831 113.331 720.779 111.277C720.727 111.171 720.642 111.085 720.536 111.033C720.431 110.981 720.311 110.964 720.195 110.987C720.079 111.009 719.974 111.069 719.896 111.158C719.818 111.246 719.771 111.357 719.763 111.474L719.676 112.532C719.369 116.162 719.903 119.813 721.236 123.206L722.741 127.031C720.678 124.309 719.251 121.164 718.564 117.824C717.876 114.484 717.945 111.033 718.766 107.723L718.891 107.213C718.893 107.193 718.893 107.173 718.891 107.153C718.976 106.534 719.131 105.926 719.353 105.342C719.355 105.323 719.355 105.305 719.353 105.287L720.359 104.142C720.628 103.971 720.923 103.842 721.231 103.76C722.115 103.565 723.035 103.617 723.89 103.912C723.627 105.723 723.83 107.438 724.85 108.79C726.494 110.964 728.331 112.09 730.302 112.132C731.114 112.15 731.92 111.994 732.665 111.672C732.734 111.931 732.779 112.195 732.799 112.463C732.868 113.351 732.632 114.236 732.13 114.973V114.927ZM724.929 104.289C726.159 104.838 727.32 105.531 728.386 106.353C730.311 107.783 731.641 109.249 732.315 110.661C731.696 110.931 731.028 111.069 730.353 111.065C728.723 111.028 727.172 110.049 725.737 108.151C724.929 107.102 724.726 105.751 724.929 104.289ZM735.61 111.152L733.898 113.06C733.912 112.846 733.912 112.631 733.898 112.417C733.745 110.118 732.107 107.783 729.028 105.493C726.415 103.549 724.139 102.57 722.242 102.57C722.081 102.57 721.924 102.57 721.781 102.57L722.93 101.278C723.676 100.428 724.636 99.7927 725.711 99.4363C726.787 99.0799 727.938 99.0158 729.046 99.2507C731.562 99.8023 733.879 101.462 735.933 104.179C736.692 105.203 737.072 106.456 737.009 107.727C736.946 108.998 736.444 110.208 735.587 111.152H735.61ZM729.277 98.2255C728.588 98.0738 727.88 98.0243 727.177 98.0784C727.763 96.9843 728.386 95.973 728.945 95.1225C728.857 96.167 728.962 97.2186 729.254 98.2255H729.277ZM743.204 102.643C742.073 103.572 740.648 104.07 739.183 104.05C738.433 104.069 737.683 103.989 736.954 103.811C736.898 103.724 736.843 103.636 736.783 103.554C734.936 101.126 732.808 99.4392 730.547 98.6071C729.798 96.7916 729.77 94.7605 730.468 92.9251L730.703 92.6171L731.493 91.7345C731.768 91.5601 732.068 91.4298 732.384 91.3484C733.26 91.1577 734.172 91.2118 735.02 91.5047C734.761 93.3159 734.964 95.0306 735.984 96.3821C737.628 98.5565 739.46 99.6782 741.436 99.7242C742.246 99.7371 743.049 99.5805 743.795 99.2645C743.863 99.5235 743.908 99.7881 743.929 100.055C743.993 100.979 743.728 101.895 743.181 102.643H743.204ZM736.007 91.8724C737.235 92.4262 738.396 93.1188 739.465 93.9365C741.394 95.3754 742.724 96.8372 743.398 98.2531C742.776 98.523 742.105 98.6593 741.427 98.6531C739.802 98.6117 738.251 97.6325 736.811 95.7339C736.03 94.6858 735.841 93.3389 736.007 91.8724ZM746.689 98.7358L744.976 100.648C744.99 100.434 744.99 100.219 744.976 100.005C744.824 97.7061 743.185 95.3662 740.106 93.0769C737.498 91.1369 735.223 90.1577 733.325 90.1577C733.164 90.1577 733.002 90.1577 732.864 90.1577L734.018 88.866C734.764 88.016 735.724 87.3797 736.799 87.0225C737.874 86.6653 739.025 86.6003 740.134 86.8341C742.65 87.3903 744.967 89.0498 747.021 91.7621C747.783 92.7833 748.167 94.0354 748.108 95.3063C748.049 96.5772 747.551 97.7888 746.698 98.7358H746.689ZM737.457 85.5239C737.669 85.1332 738.629 84.0483 738.842 83.6851C738.842 84.0391 738.915 85.2573 738.966 85.648C738.722 85.6388 737.683 85.5055 737.448 85.5239H737.457ZM753.193 91.4725C752.487 92.1574 751.028 92.8286 749.172 92.8792H748.808C748.591 92.2565 748.279 91.6705 747.884 91.1415C745.669 88.2178 743.144 86.4249 740.37 85.8135L740.051 85.7538C739.876 84.6257 739.947 83.4734 740.259 82.3749C740.827 81.5245 741.302 80.8763 741.574 80.5131C741.82 80.3681 742.084 80.2567 742.359 80.1822C743.242 79.9823 744.163 80.0332 745.018 80.3293C744.755 82.1681 744.958 83.8552 745.978 85.2067C747.621 87.3811 749.459 88.5074 751.43 88.5534C752.241 88.5649 753.046 88.4084 753.793 88.0937C753.862 88.3526 753.907 88.6173 753.927 88.8843C753.992 89.8072 753.729 90.7234 753.184 91.4725H753.193ZM746.02 80.697C747.248 81.2497 748.408 81.9424 749.477 82.7611C751.407 84.1954 752.708 85.6572 753.405 87.0731C752.816 87.3322 752.18 87.4698 751.536 87.4777H751.434C749.809 87.4363 748.258 86.4571 746.818 84.5585C746.033 83.515 745.84 82.1681 746.02 80.697ZM756.701 87.5604L754.989 89.4728C755.005 89.2585 755.005 89.0434 754.989 88.8292C754.841 86.5307 753.202 84.1908 750.123 81.9014C747.511 79.9615 745.235 78.9823 743.338 78.9823C743.176 78.9823 743.019 78.9823 742.876 78.9823L744.025 77.6906C744.772 76.8418 745.732 76.2066 746.807 75.8503C747.882 75.494 749.033 75.4294 750.142 75.6633C752.657 76.2195 754.975 77.8744 757.029 80.5913C757.79 81.613 758.173 82.8654 758.114 84.1363C758.054 85.4073 757.555 86.6185 756.701 87.565V87.5604ZM750.368 74.6381C749.679 74.488 748.971 74.4399 748.268 74.4956C748.854 73.3969 749.477 72.3856 750.036 71.5351C749.953 72.5825 750.066 73.6361 750.368 74.6427V74.6381ZM764.299 79.0513C763.593 79.7362 762.13 80.4304 760.274 80.4626C759.523 80.4781 758.773 80.3946 758.044 80.2143C757.984 80.1316 757.934 80.0442 757.869 79.9661C756.023 77.4975 753.908 75.8288 751.637 75.0105C750.893 73.1955 750.866 71.1668 751.563 69.3331L751.799 69.0297L752.588 68.1471C752.863 67.9718 753.163 67.8414 753.479 67.7609C754.356 67.575 755.267 67.629 756.115 67.9172C755.856 69.7285 756.06 71.4432 757.08 72.7947C758.723 74.9691 760.556 76.0954 762.531 76.1368C763.341 76.1488 764.145 75.9922 764.89 75.6771C764.959 75.9375 765.004 76.2037 765.024 76.4723C765.094 77.3915 764.837 78.3058 764.299 79.0559V79.0513ZM757.13 68.285C758.36 68.8363 759.52 69.529 760.588 70.3491C762.522 71.7834 763.851 73.2498 764.521 74.6657C763.902 74.9395 763.231 75.0744 762.554 75.0611C760.925 75.0243 759.374 74.0451 757.938 72.1465C757.144 71.103 756.955 69.7515 757.13 68.285ZM761.239 63.2696C763.755 63.8213 766.067 65.4808 768.126 68.1977C768.883 69.2159 769.265 70.4627 769.208 71.7285C769.151 72.9943 768.658 74.2019 767.812 75.1484L766.099 77.0562C766.113 76.8419 766.113 76.6269 766.099 76.4126C765.947 74.1141 764.308 71.7788 761.23 69.4894C758.617 67.5449 756.346 66.5657 754.449 66.5657C754.287 66.5657 754.125 66.5657 753.987 66.5657L755.141 65.2739C755.888 64.4321 756.846 63.8032 757.918 63.4518C758.989 63.1004 760.136 63.0391 761.239 63.2742V63.2696ZM757.744 62.3824L758.326 61.7342C758.229 61.9181 758.141 62.1066 758.049 62.2951L757.744 62.3824ZM762.153 55.873C762.13 55.8872 762.109 55.9026 762.088 55.919L760.934 57.2521C760.496 57.574 760.13 57.9825 759.859 58.4519L754.55 64.3775C754.476 64.4557 754.398 64.5292 754.324 64.612L743.439 76.7895C743.361 76.8677 743.287 76.9458 743.213 77.0286L740.905 79.6121L740.757 79.7776C740.249 80.1351 739.833 80.6078 739.543 81.1567L730.773 90.9622C730.034 91.4817 722.339 100.386 722.339 100.386C722.261 100.464 722.182 100.542 722.108 100.625L719.75 103.223L719.643 103.342C719.165 103.673 718.763 104.102 718.466 104.602L715.974 104.11L722.561 98.9059C722.643 98.8424 722.704 98.7561 722.737 98.6579C722.77 98.5597 722.773 98.4541 722.745 98.3543L720.756 90.5393L723.632 88.0615C723.697 88.005 723.747 87.9337 723.778 87.8536C723.81 87.7736 723.821 87.6872 723.812 87.6018C723.796 87.4833 723.739 87.3742 723.65 87.2938L721.859 80.8579L727.975 83.6805C728.069 83.7249 728.174 83.7407 728.276 83.726C728.379 83.7112 728.475 83.6666 728.552 83.5978L733.875 79.0007C733.931 78.9511 733.976 78.8902 734.007 78.8221C734.037 78.7539 734.053 78.6801 734.053 78.6054C734.053 78.5307 734.037 78.4568 734.007 78.3886C733.976 78.3205 733.931 78.2596 733.875 78.21L732.084 71.7742L738.2 74.6013C738.271 74.6319 738.348 74.6476 738.426 74.6473C738.556 74.6489 738.683 74.6031 738.782 74.5186L744.099 69.9216C744.167 69.8622 744.22 69.7872 744.252 69.7031C744.284 69.6189 744.295 69.5282 744.284 69.4389C744.266 69.3203 744.207 69.2116 744.118 69.1309L742.327 62.695L748.471 65.4808C748.564 65.5252 748.669 65.541 748.772 65.5263C748.874 65.5116 748.97 65.467 749.048 65.3981L754.37 60.801C754.435 60.7448 754.486 60.6735 754.517 60.5934C754.549 60.5133 754.56 60.4268 754.55 60.3413C754.545 60.2898 754.529 60.2398 754.504 60.1942C754.508 60.156 754.508 60.1175 754.504 60.0793L751.171 48.0948C751.032 47.5943 751.04 47.0643 751.196 46.5685C751.351 46.0727 751.647 45.6322 752.048 45.2998L754.356 43.3691C754.576 43.1904 754.858 43.1061 755.141 43.1346C755.282 43.1485 755.418 43.1907 755.542 43.2586C755.666 43.3266 755.774 43.4189 755.861 43.5299L756.613 44.4815C757.726 45.8843 759.147 47.0136 760.768 47.7822L761.086 47.9293C763.149 48.9114 764.788 50.6004 765.702 52.6873C764.847 53.1175 764.081 53.7056 763.445 54.4203L762.153 55.873ZM790.851 55.3306C788.57 56.843 776.878 64.1385 770.379 59.3024C767.766 57.3624 765.49 56.3833 763.593 56.3833C763.431 56.3833 763.274 56.3833 763.131 56.3833L764.281 55.0915C764.806 54.5094 765.431 54.0252 766.127 53.6618C766.579 53.4308 767.065 53.2755 767.567 53.2021C768.171 53.0631 768.802 53.0878 769.393 53.2738C769.984 53.4597 770.514 53.8001 770.928 54.2594C770.997 54.3422 771.066 54.4295 771.131 54.5169C772.83 56.9165 776.407 60.7597 781.259 59.5736C784.693 58.7765 787.91 57.2369 790.68 55.0639C790.711 55.0355 790.751 55.0197 790.793 55.0197C790.835 55.0197 790.875 55.0355 790.906 55.0639C790.924 55.082 790.938 55.1037 790.946 55.1275C790.955 55.1512 790.959 55.1766 790.957 55.2018C790.955 55.2327 790.944 55.2623 790.925 55.2868C790.906 55.3114 790.88 55.3298 790.851 55.3397V55.3306Z" fill="white"/>
<path id="Polygon 1" d="M732.5 65L740.5 68.5L736 72.5L728 68.5L732.5 65Z" fill="#FF0000"/>
<rect id="Rectangle 46" width="68" height="101" fill="#A6BECA"/>
<text id="Protein for" fill="black" xml:space="preserve" style="white-space: pre" font-family="Roboto Slab" font-size="24" font-weight="300" letter-spacing="0em"><tspan x="39" y="52.3223">Protein for</tspan></text>
<text id="Trait_name" fill="black" xml:space="preserve" style="white-space: pre" font-family="Roboto Slab" font-size="24" font-weight="bold" letter-spacing="0em"><tspan x="163" y="52.3223">TRAIT</tspan></text>
<text id="MUTATION WIZARD" fill="black" xml:space="preserve" style="white-space: pre" font-family="Roboto Slab" font-size="40" font-weight="900" letter-spacing="0em"><tspan x="38" y="90.0371">MUTATION WIZARD</tspan></text>
</g>
</svg>
